<?xml version="1.0" encoding="UTF-8"?>
<svg id="Layer_1" xmlns="http://www.w3.org/2000/svg" version="1.1" viewBox="0 0 260.1 260.1">
  <!-- Generator: Adobe Illustrator 29.3.1, SVG Export Plug-In . SVG Version: 2.1.0 Build 151)  -->
  <defs>
    <style>
      .st0 {
        fill: #fefefe;
      }

      .st0, .st1 {
        fill-rule: evenodd;
      }

      .st1 {
        fill: #1977f3;
      }
    </style>
  </defs>
  <path class="st1" d="M260.1,130C260.1,58.2,201.9,0,130,0S0,58.2,0,130s47.6,118.7,109.7,128.5v-90.9h-33v-37.6h33v-28.7c0-32.6,19.4-50.6,49.1-50.6s29.1,2.5,29.1,2.5v32h-16.4c-16.1,0-21.2,10-21.2,20.3v24.4h36.1l-5.8,37.6h-30.3v90.9c62.2-9.7,109.7-63.6,109.7-128.5h0Z"/>
  <path class="st0" d="M180.7,167.6l5.8-37.6h-36.1v-24.4c0-10.3,5-20.3,21.2-20.3h16.4v-32s-14.9-2.5-29.1-2.5c-29.7,0-49.1,18-49.1,50.6v28.7h-33v37.6h33v90.9c6.6,1,13.4,1.6,20.3,1.6s13.7-.5,20.3-1.6v-90.9h30.3,0Z"/>
</svg>